<svg xmlns="http://www.w3.org/2000/svg" xml:space="preserve" width="800" height="800" viewBox="0 0 54 64"><g fill="none" stroke="black" stroke-width="2"><path d="M48 8h3c1.1 0 2 .9 2 2v8c0 1.1-.9 2-2 2h-3M48 25h3c1.1 0 2 .9 2 2v8c0 1.1-.9 2-2 2h-3M48 42h3c1.1 0 2 .9 2 2v8c0 1.1-.9 2-2 2h-3"/><path d="M1 3c0-1.1.9-2 2-2h44c1.1 0 2 .9 2 2v58c0 1.1-.9 2-2 2H3c-1.1 0-2-.9-2-2V3zM7 4v56"/><path d="M21.8 39c1.3-.6 3.1-1.7 3.1-2.7 0-.5-.2-.9-.4-1-2.5-1.4-2.9-5.8-3.1-5.8-.8 0-1.4-2.1-1.4-3.4 0-1.1.3-1.1.9-1.4v-.2c0-3.6 2.3-6.5 6-6.5s6.3 3 6.3 6.6v.2c.6.3.8.5.8 1.6 0 1.4-.5 3.3-1.3 3.3-.2 0-.8 4.3-3.2 5.7-.2.1-.4.3-.4.8 0 1.2 1.9 2.2 3.2 2.8 1.6.8 8.7 1.5 8.7 9H12.9c0-7.5 6.9-8 8.9-9z"/></g></svg>
