<svg id="minesweeper" xmlns="http://www.w3.org/2000/svg" width="800" height="800" viewBox="0 0 48 48"><defs><style>.b{fill:none;stroke:#000;stroke-linecap:round;stroke-linejoin:round}</style></defs><path d="M15.24 22.65a2.2 2.2 0 1 1 2.19-2.19 2.19 2.19 0 0 1-2.19 2.19ZM21 18.89a3 3 0 1 1 3-3 3 3 0 0 1-3 3Z" style="stroke-miterlimit:10;fill:none;stroke:#000"/><circle cx="24.01" cy="24" r="15.73" class="b"/><path d="M24 2.5v5.77M45.51 23.98h-5.76M24.03 45.5v-5.77M2.51 24.02h5.77M35.14 12.88l2.04-2.04M35.14 35.12l2.04 2.04M12.89 35.12l-2.04 2.04M12.89 12.88l-2.04-2.04" class="b"/></svg>
